<svg width="35" height="35" viewBox="0 0 35 35" fill="none" xmlns="http://www.w3.org/2000/svg">
<path fill-rule="evenodd" clip-rule="evenodd" d="M5.25 17.5C5.25 10.8917 10.8917 5.25 17.5 5.25C24.1082 5.25 29.75 10.8917 29.75 17.5C29.75 17.9833 29.3582 18.375 28.875 18.375C28.3918 18.375 28 17.9833 28 17.5C28 11.8583 23.1417 7 17.5 7C11.8583 7 7 11.8583 7 17.5C7 17.9833 6.60826 18.375 6.125 18.375C5.64174 18.375 5.25 17.9833 5.25 17.5Z" fill="#387EE9"/>
<path fill-rule="evenodd" clip-rule="evenodd" d="M6.125 16.625C6.60826 16.625 7 17.0167 7 17.5C7 23.1417 11.8583 28 17.5 28C18.9675 28 21.0095 27.5947 22.8779 26.5755C24.7331 25.5635 26.3793 23.9699 27.1698 21.5983C27.3226 21.1399 27.8182 20.8921 28.2767 21.0449C28.7352 21.1977 28.983 21.6933 28.8302 22.1517C27.8707 25.0301 25.8711 26.9365 23.7158 28.112C21.5739 29.2803 19.2409 29.75 17.5 29.75C10.8917 29.75 5.25 24.1082 5.25 17.5C5.25 17.0167 5.64174 16.625 6.125 16.625Z" fill="url(#paint0_linear)"/>
<defs>
<linearGradient id="paint0_linear" x1="6.125" y1="17.5" x2="30.625" y2="17.5" gradientUnits="userSpaceOnUse">
<stop stop-color="#387EE9" stop-opacity="0.81"/>
<stop offset="1" stop-color="#387EE9" stop-opacity="0"/>
</linearGradient>
</defs>
</svg>
